<svg width="1400" height="820" viewBox="0 0 1400 820" fill="none" xmlns="http://www.w3.org/2000/svg" role="img" aria-label="AURORA 데이터셋 규모 차트">
  <defs>
    <linearGradient id="bg" x1="0" y1="0" x2="1400" y2="820" gradientUnits="userSpaceOnUse">
      <stop stop-color="#0B1220"/>
      <stop offset="1" stop-color="#172554"/>
    </linearGradient>
    <linearGradient id="barA" x1="0" y1="0" x2="0" y2="1">
      <stop stop-color="#67E8F9"/>
      <stop offset="1" stop-color="#0EA5E9"/>
    </linearGradient>
    <linearGradient id="barB" x1="0" y1="0" x2="0" y2="1">
      <stop stop-color="#A7F3D0"/>
      <stop offset="1" stop-color="#10B981"/>
    </linearGradient>
    <linearGradient id="barC" x1="0" y1="0" x2="0" y2="1">
      <stop stop-color="#BFDBFE"/>
      <stop offset="1" stop-color="#2563EB"/>
    </linearGradient>
  </defs>
  <rect width="1400" height="820" rx="20" fill="url(#bg)"/>
  <text x="56" y="82" fill="#E2E8F0" font-size="42" font-weight="700" font-family="Inter, Segoe UI, sans-serif">AURORA Dataset Scale (Sanitized)</text>
  <text x="56" y="122" fill="#93C5FD" font-size="22" font-family="Inter, Segoe UI, sans-serif">Snapshot source: /Users/ben/files/aurora scan (2026-03-03)</text>

  <rect x="56" y="160" width="1288" height="610" rx="16" fill="#0F172A" stroke="#334155"/>

  <line x1="180" y1="662" x2="1230" y2="662" stroke="#475569"/>
  <line x1="180" y1="278" x2="180" y2="662" stroke="#475569"/>

  <rect x="250" y="278" width="190" height="384" rx="10" fill="url(#barA)"/>
  <rect x="555" y="435" width="190" height="227" rx="10" fill="url(#barB)"/>
  <rect x="860" y="470" width="190" height="192" rx="10" fill="url(#barC)"/>

  <text x="275" y="256" fill="#67E8F9" font-size="24" font-weight="700" font-family="Inter, Segoe UI, sans-serif">818,917</text>
  <text x="570" y="413" fill="#A7F3D0" font-size="24" font-weight="700" font-family="Inter, Segoe UI, sans-serif">475,442</text>
  <text x="892" y="448" fill="#BFDBFE" font-size="24" font-weight="700" font-family="Inter, Segoe UI, sans-serif">403,452</text>

  <text x="230" y="698" fill="#CBD5E1" font-size="20" font-family="Inter, Segoe UI, sans-serif">Export CSV Rows</text>
  <text x="545" y="698" fill="#CBD5E1" font-size="20" font-family="Inter, Segoe UI, sans-serif">Core DB Rows</text>
  <text x="846" y="698" fill="#CBD5E1" font-size="20" font-family="Inter, Segoe UI, sans-serif">Largest Table</text>

  <rect x="1085" y="240" width="220" height="160" rx="12" fill="#111827" stroke="#334155"/>
  <text x="1106" y="278" fill="#E2E8F0" font-size="22" font-weight="700" font-family="Inter, Segoe UI, sans-serif">DB Footprint</text>
  <text x="1106" y="312" fill="#93C5FD" font-size="20" font-family="Inter, Segoe UI, sans-serif">35 DB files</text>
  <text x="1106" y="344" fill="#93C5FD" font-size="20" font-family="Inter, Segoe UI, sans-serif">1.85 GB total</text>
  <text x="1106" y="376" fill="#93C5FD" font-size="20" font-family="Inter, Segoe UI, sans-serif">29 CSV files</text>

  <text x="72" y="756" fill="#94A3B8" font-size="18" font-family="Inter, Segoe UI, sans-serif">* Values are sanitized operational aggregates (no sensitive payload or secret fields).</text>
</svg>
