<svg width="1200" height="760" viewBox="0 0 1200 760" fill="none" xmlns="http://www.w3.org/2000/svg" role="img" aria-label="Pure-Flon website operations placeholder">
  <defs>
    <linearGradient id="bg" x1="0" y1="0" x2="1200" y2="760" gradientUnits="userSpaceOnUse">
      <stop stop-color="#0F172A"/>
      <stop offset="1" stop-color="#1E293B"/>
    </linearGradient>
    <linearGradient id="accent" x1="188" y1="148" x2="1012" y2="612" gradientUnits="userSpaceOnUse">
      <stop stop-color="#38BDF8"/>
      <stop offset="1" stop-color="#22D3EE"/>
    </linearGradient>
  </defs>
  <rect width="1200" height="760" fill="url(#bg)"/>
  <rect x="60" y="60" width="1080" height="640" rx="20" fill="#0B1220" stroke="#334155" stroke-width="2"/>
  <rect x="108" y="128" width="984" height="56" rx="12" fill="#111827" stroke="#1F2937"/>
  <circle cx="146" cy="156" r="8" fill="#34D399"/>
  <circle cx="172" cy="156" r="8" fill="#60A5FA"/>
  <circle cx="198" cy="156" r="8" fill="#F59E0B"/>
  <text x="232" y="162" fill="#E2E8F0" font-family="Inter, Segoe UI, sans-serif" font-size="18" font-weight="600">PURE-FLON WEBSITE OPS BOARD</text>

  <rect x="108" y="220" width="300" height="156" rx="14" fill="#0F172A" stroke="#334155"/>
  <rect x="450" y="220" width="300" height="156" rx="14" fill="#0F172A" stroke="#334155"/>
  <rect x="792" y="220" width="300" height="156" rx="14" fill="#0F172A" stroke="#334155"/>

  <text x="132" y="262" fill="#93C5FD" font-family="Inter, Segoe UI, sans-serif" font-size="20" font-weight="700">Main Page</text>
  <text x="132" y="296" fill="#CBD5E1" font-family="Inter, Segoe UI, sans-serif" font-size="16">Minimal exposure surface</text>
  <text x="132" y="322" fill="#CBD5E1" font-family="Inter, Segoe UI, sans-serif" font-size="16">Professional placeholder assets</text>

  <text x="474" y="262" fill="#67E8F9" font-family="Inter, Segoe UI, sans-serif" font-size="20" font-weight="700">Automation</text>
  <text x="474" y="296" fill="#CBD5E1" font-family="Inter, Segoe UI, sans-serif" font-size="16">Route/SEO checks</text>
  <text x="474" y="322" fill="#CBD5E1" font-family="Inter, Segoe UI, sans-serif" font-size="16">Build + smoke workflow</text>

  <text x="816" y="262" fill="#5EEAD4" font-family="Inter, Segoe UI, sans-serif" font-size="20" font-weight="700">Deploy Stack</text>
  <text x="816" y="296" fill="#CBD5E1" font-family="Inter, Segoe UI, sans-serif" font-size="16">Vercel (public deploy)</text>
  <text x="816" y="322" fill="#CBD5E1" font-family="Inter, Segoe UI, sans-serif" font-size="16">ngrok (internal tunnel test)</text>

  <path d="M408 298H446" stroke="url(#accent)" stroke-width="5" stroke-linecap="round"/>
  <polygon points="446,290 462,298 446,306" fill="#22D3EE"/>
  <path d="M750 298H788" stroke="url(#accent)" stroke-width="5" stroke-linecap="round"/>
  <polygon points="788,290 804,298 788,306" fill="#22D3EE"/>

  <rect x="108" y="418" width="984" height="224" rx="16" fill="#0F172A" stroke="#334155"/>
  <text x="136" y="458" fill="#E2E8F0" font-family="Inter, Segoe UI, sans-serif" font-size="22" font-weight="700">Operational Flow (Sanitized)</text>
  <text x="136" y="496" fill="#94A3B8" font-family="Inter, Segoe UI, sans-serif" font-size="16">Main Page Curation → Automated Validation → Controlled Deployment</text>

  <rect x="136" y="528" width="236" height="72" rx="10" fill="#0B1220" stroke="#1E40AF"/>
  <rect x="484" y="528" width="236" height="72" rx="10" fill="#0B1220" stroke="#0E7490"/>
  <rect x="832" y="528" width="236" height="72" rx="10" fill="#0B1220" stroke="#0F766E"/>

  <text x="160" y="572" fill="#BFDBFE" font-family="Inter, Segoe UI, sans-serif" font-size="18" font-weight="600">Main-Only Exposure</text>
  <text x="514" y="572" fill="#A5F3FC" font-family="Inter, Segoe UI, sans-serif" font-size="18" font-weight="600">Automation Gate</text>
  <text x="862" y="572" fill="#99F6E4" font-family="Inter, Segoe UI, sans-serif" font-size="18" font-weight="600">Deploy + Monitor</text>

  <path d="M372 564H478" stroke="#38BDF8" stroke-width="4" stroke-linecap="round"/>
  <polygon points="478,556 494,564 478,572" fill="#38BDF8"/>
  <path d="M720 564H826" stroke="#22D3EE" stroke-width="4" stroke-linecap="round"/>
  <polygon points="826,556 842,564 826,572" fill="#22D3EE"/>
</svg>
